<?xml version="1.0" encoding="UTF-8" standalone="no"?>
<svg width="74px" height="75px" viewBox="0 0 74 75" version="1.1" xmlns="http://www.w3.org/2000/svg" xmlns:xlink="http://www.w3.org/1999/xlink" xmlns:sketch="http://www.bohemiancoding.com/sketch/ns">
    <!-- Generator: Sketch 3.4.4 (17249) - http://www.bohemiancoding.com/sketch -->
    <title>facebook icon</title>
    <desc>Created with Sketch.</desc>
    <defs></defs>
    <g id="Landing-Page" stroke="none" stroke-width="1" fill="none" fill-rule="evenodd" sketch:type="MSPage">
        <g sketch:type="MSArtboardGroup" transform="translate(-559.000000, -2979.000000)" id="footer" fill="#FFFFFF">
            <g sketch:type="MSLayerGroup" transform="translate(-132.000000, 2397.000000)">
                <g id="socail-media" transform="translate(691.000000, 582.000000)" sketch:type="MSShapeGroup">
                    <g id="facebook-icon">
                        <path d="M37.0205,0.2355 C16.6205,0.2355 0.083,16.776 0.083,37.173 C0.083,57.573 16.6205,74.1075 37.0205,74.1075 C57.4205,74.1075 73.958,57.573 73.958,37.173 C73.958,16.776 57.419,0.2355 37.0205,0.2355 L37.0205,0.2355 Z M46.796,37.0185 L40.4,37.0185 L40.4,59.829 L30.92,59.829 L30.92,37.0185 L26.411,37.0185 L26.411,28.965 L30.92,28.965 L30.92,23.7465 C30.92,20.0115 32.693,14.181 40.4885,14.181 L47.5085,14.208 L47.5085,22.0305 L42.4115,22.0305 C41.579,22.0305 40.4015,22.446 40.4015,24.222 L40.4015,28.9665 L47.6285,28.9665 L46.796,37.0185 L46.796,37.0185 Z" id="Shape"></path>
                    </g>
                </g>
            </g>
        </g>
    </g>
</svg>