<?xml version="1.0" encoding="UTF-8" standalone="no"?>
<svg width="74px" height="75px" viewBox="0 0 74 75" version="1.1" xmlns="http://www.w3.org/2000/svg" xmlns:xlink="http://www.w3.org/1999/xlink" xmlns:sketch="http://www.bohemiancoding.com/sketch/ns">
    <!-- Generator: Sketch 3.4.4 (17249) - http://www.bohemiancoding.com/sketch -->
    <title>instagram icon</title>
    <desc>Created with Sketch.</desc>
    <defs></defs>
    <g id="Landing-Page" stroke="none" stroke-width="1" fill="none" fill-rule="evenodd" sketch:type="MSPage">
        <g sketch:type="MSArtboardGroup" transform="translate(-809.000000, -2979.000000)" id="footer" fill="#FFFFFF">
            <g sketch:type="MSLayerGroup" transform="translate(-132.000000, 2397.000000)">
                <g id="socail-media" transform="translate(691.000000, 582.000000)" sketch:type="MSShapeGroup">
                    <g id="instagram-icon" transform="translate(250.000000, 0.000000)">
                        <path d="M52.268,29.088 L52.268,23.1675 L52.268,22.2825 L51.383,22.2855 L45.4625,22.3065 L45.485,29.1105 L52.268,29.088 Z" id="Shape"></path>
                        <path d="M36.8375,44.802 C40.7345,44.802 43.907,41.6325 43.907,37.7355 C43.907,36.198 43.406,34.773 42.5675,33.6135 C41.285,31.8345 39.1955,30.666 36.8375,30.666 C34.4795,30.666 32.393,31.8345 31.1075,33.6135 C30.269,34.773 29.771,36.198 29.771,37.7355 C29.771,41.6325 32.9405,44.802 36.8375,44.802 L36.8375,44.802 Z" id="Shape"></path>
                        <path d="M37.022,0.237 C16.622,0.237 0.0845,16.7715 0.0845,37.1715 C0.0845,57.5715 16.622,74.109 37.022,74.109 C57.419,74.109 73.9565,57.5715 73.9565,37.1715 C73.9565,16.7715 57.4175,0.237 37.022,0.237 L37.022,0.237 Z M56.9165,33.6135 L56.9165,50.055 C56.9165,54.333 53.4335,57.813 49.1555,57.813 L24.518,57.813 C20.2385,57.813 16.7585,54.333 16.7585,50.055 L16.7585,33.6135 L16.7585,25.4175 C16.7585,21.138 20.2385,17.658 24.518,17.658 L49.1555,17.658 C53.4335,17.658 56.9165,21.138 56.9165,25.4175 L56.9165,33.6135 L56.9165,33.6135 Z" id="Shape"></path>
                        <path d="M47.8175,37.7355 C47.8175,43.788 42.893,48.7155 36.8375,48.7155 C30.782,48.7155 25.8605,43.788 25.8605,37.7355 C25.8605,36.276 26.15,34.8885 26.666,33.6135 L20.672,33.6135 L20.672,50.055 C20.672,52.176 22.397,53.901 24.518,53.901 L49.1555,53.901 C51.2765,53.901 53.0015,52.176 53.0015,50.055 L53.0015,33.6135 L47.0045,33.6135 C47.525,34.8885 47.8175,36.2775 47.8175,37.7355 L47.8175,37.7355 Z" id="Shape"></path>
                    </g>
                </g>
            </g>
        </g>
    </g>
</svg>