<?xml version="1.0" encoding="UTF-8" standalone="no"?>
<svg width="74px" height="75px" viewBox="0 0 74 75" version="1.1" xmlns="http://www.w3.org/2000/svg" xmlns:xlink="http://www.w3.org/1999/xlink" xmlns:sketch="http://www.bohemiancoding.com/sketch/ns">
    <!-- Generator: Sketch 3.4.4 (17249) - http://www.bohemiancoding.com/sketch -->
    <title>twitter icon</title>
    <desc>Created with Sketch.</desc>
    <defs></defs>
    <g id="Landing-Page" stroke="none" stroke-width="1" fill="none" fill-rule="evenodd" sketch:type="MSPage">
        <g sketch:type="MSArtboardGroup" transform="translate(-684.000000, -2979.000000)" id="footer" fill="#FFFFFF">
            <g sketch:type="MSLayerGroup" transform="translate(-132.000000, 2397.000000)">
                <g id="socail-media" transform="translate(691.000000, 582.000000)" sketch:type="MSShapeGroup">
                    <g id="twitter-icon" transform="translate(125.000000, 0.000000)">
                        <path d="M37.022,0.2355 C16.622,0.2355 0.0845,16.776 0.0845,37.173 C0.0845,57.573 16.622,74.1075 37.022,74.1075 C57.422,74.1075 73.9565,57.573 73.9565,37.173 C73.9565,16.776 57.4205,0.2355 37.022,0.2355 L37.022,0.2355 Z M55.628,29.7255 C55.6475,30.1245 55.655,30.525 55.655,30.93 C55.655,43.2315 46.292,57.414 29.171,57.414 C23.915,57.414 19.0205,55.8735 14.9015,53.2335 C15.6305,53.319 16.37,53.3625 17.1215,53.3625 C21.4835,53.3625 25.4975,51.8745 28.682,49.3785 C24.6095,49.302 21.173,46.6095 19.988,42.912 C20.555,43.023 21.1385,43.0785 21.7385,43.0785 C22.5875,43.0785 23.4095,42.9675 24.191,42.753 C19.931,41.898 16.7225,38.133 16.7225,33.627 C16.7225,33.5865 16.7225,33.5475 16.724,33.507 C17.978,34.2045 19.4135,34.623 20.9405,34.6725 C18.4415,33 16.799,30.1545 16.799,26.9235 C16.799,25.218 17.258,23.6175 18.059,22.2435 C22.6505,27.8745 29.51,31.581 37.247,31.968 C37.088,31.2885 37.0055,30.576 37.0055,29.847 C37.0055,24.708 41.1725,20.5395 46.3145,20.5395 C48.992,20.5395 51.41,21.6705 53.108,23.478 C55.229,23.0625 57.221,22.2855 59.0195,21.219 C58.322,23.394 56.8475,25.218 54.9245,26.3685 C56.81,26.1435 58.604,25.6425 60.272,24.903 C59.027,26.7735 57.4475,28.413 55.628,29.7255 L55.628,29.7255 Z" id="Shape"></path>
                    </g>
                </g>
            </g>
        </g>
    </g>
</svg>